<?xml version="1.0" encoding="utf-8"?>
<!-- Generator: Adobe Illustrator 22.0.1, SVG Export Plug-In . SVG Version: 6.00 Build 0)  -->
<svg version="1.1" xmlns="http://www.w3.org/2000/svg" xmlns:xlink="http://www.w3.org/1999/xlink" x="0px" y="0px"
	 viewBox="0 0 1200 4200" style="enable-background:new 0 0 1200 4200;" xml:space="preserve">
<style type="text/css">
	.st0{display:none;}
	.st1{display:inline;fill:#FFFCAE;}
	.st2{display:inline;fill:#9AEB8F;}
	.st3{display:inline;fill:#58CFCD;}
	.st4{display:inline;fill:#79D7FF;}
	.st5{display:inline;fill:#9398D4;}
	.st6{display:inline;fill:#F495AF;}
	.st7{display:inline;fill:#FFC790;}
	.st8{display:inline;fill:none;}
	.st9{fill:#FFFCAE;}
	.st10{fill:#9AEB8F;}
	.st11{fill:#FFC790;}
	.st12{fill:#F495AF;}
	.st13{fill:#58CFCD;}
	.st14{fill:#79D7FF;}
	.st15{fill:#9398D4;}
</style>
<g id="Layer_1" class="st0">
	<path class="st1" d="M-478.7,4203.1c81.8,399.4,172.9,765,276.9,1091C23.1,3552.1,433.8,2027.9,434.6,4c-22.6,0-45.2,0-67.8,0
		C355.5,1965.1-189.7,2807.9-478.7,4203.1"/>
	<path class="st2" d="M502.1,4c-22.6,0-45.2,0-67.8,0c-0.8,2023.9-411.5,3548.1-636.4,5290.1c95.3,287.8,197.3,532,309.3,727.5
		C261.3,4040.8,501.3,2093.9,502.1,4z"/>
	<path class="st3" d="M569.6,4c-22.6,0-45.2,0-67.8,0C501,2093.9,260.9,4040.8,106.9,6021.6c105.7,174,214.3,296.1,329,363.7
		C492.3,4262.6,568.8,2139.7,569.6,4z"/>
	<path class="st4" d="M635.3,4c-22.6,0-45.2,0-67.8,0c-0.8,2135.7-77.3,4258.6-133.7,6381.4c112.3,55.9,223.1,56,335.4-0.1
		C712.9,4262.5,636,2139.8,635.3,4z"/>
	<path class="st5" d="M701.6,4c-22.6,0-45.2,0-67.8,0c0.7,2135.8,77.6,4258.5,133.9,6381.3c114.6-67.6,223.2-189.7,328.7-363.6
		C942.5,4040.4,702.5,2094.2,701.6,4z"/>
	<path class="st6" d="M769.1,4c-22.6,0-45.2,0-67.8,0c0.9,2090.2,240.9,4036.4,394.8,6017.7c112-195.7,214.1-439.7,309.4-727.6
		C1180.6,3552.1,769.8,2028,769.1,4z"/>
	<path class="st7" d="M1682.7,4203.1C1393.8,2807.1,848.5,1965.7,837.2,4c-22.6,0-45.2,0-67.8,0c0.7,2024,411.5,3548.1,636.4,5290.1
		C1509.8,4968.1,1601,4602.7,1682.7,4203.1"/>
	<polyline class="st8" points="0,2486 0,4 1200,4 1200,2486 	"/>
</g>
<g id="Layer_2">
	<g>
		<path class="st9" d="M367,4h68c0,0,9,1877-435,3892V2486C0,2486,315,1187,367,4z"/>
		<path class="st10" d="M435,4h67c23.2,744.6-63.7,2191.9-238,4196H0l0-304C160,3268,390.3,1760.7,435,4z"/>
		<path class="st11" d="M838,4h-68c0,0-9,1877,435,3892V2486C1205,2486,890,1187,838,4z"/>
		<path class="st12" d="M770,4h-67c-23.2,744.6,63.7,2191.9,238,4196h264v-304C1067,3287,814.7,1760.7,770,4z"/>
		<path class="st13" d="M502,4h68l-49.8,4196H264C327,3323,502,1709,502,4z"/>
		<polygon class="st14" points="570,4 634,4 701,4200 495,4200 		"/>
		<path class="st15" d="M701,4200h240C873,3478,751,1721,703,4h-69L701,4200z"/>
	</g>
</g>
</svg>
